<?xml version="1.0" encoding="utf-8"?>
<!-- Svg Vector Icons : http://www.onlinewebfonts.com/icon -->
<!DOCTYPE svg PUBLIC "-//W3C//DTD SVG 1.1//EN" "http://www.w3.org/Graphics/SVG/1.1/DTD/svg11.dtd">
<svg version="1.1" xmlns="http://www.w3.org/2000/svg" xmlns:xlink="http://www.w3.org/1999/xlink" x="0px" y="0px" viewBox="0 0 1000 1000" enable-background="new 0 0 1000 1000" xml:space="preserve">
<metadata> Svg Vector Icons : http://www.onlinewebfonts.com/icon </metadata>
<g><g><path d="M55.1,178.1H10V32.5C10,20.1,20.1,10,32.5,10h145.6v45.1h-123V178.1z"/><path d="M178.1,990H32.5C20.1,990,10,979.9,10,967.5V821.9h45.1v123.1h123L178.1,990L178.1,990z"/><path d="M990,178.1h-45.1V55.1H821.8V10h145.6c12.5,0,22.5,10.1,22.5,22.5L990,178.1L990,178.1z"/><path d="M967.5,990H821.8v-45.1h123.1V821.9H990v145.6C990,979.9,979.9,990,967.5,990z"/></g><g></g><g></g><g></g><g></g><g></g><g></g><g></g><g></g><g></g><g></g><g></g><g></g><g></g><g></g><g></g></g>
</svg>